# xmcd
#
# Track frame offsets:
#	300
#	14743
#	32496
#	48891
#	64826
#	79766
#	93786
#	110291
#	125217
#	139406
#	153849
#	171606
#	188001
#	203932
#	218871
#	232889
#	249390
#	264312
#
# Disc length: 3713 seconds
#
# Revision: 1
# Processed by: cddbd v1.5.2PL0 Copyright (c) Steve Scherf et al.
# Submitted via: audiograbber 1.83.01
#
DISCID=fa0e7d12
DTITLE=Various Artist - PHMC1404
DYEAR=2014
DGENRE=Karaoke
TTITLE0=Brad Paisley - River Song
TTITLE1=Eric Paslay - Song About A Girl
TTITLE2=Cole Swindell - Hope You Get Lonely Tonight
TTITLE3=Dustin Lynch - Where It's At
TTITLE4=Blake Shelton feat Gwen Sebatian - My Eyes
TTITLE5=Sara Evans - Slow Me Down
TTITLE6=Jamie Lynn Spears - How Could I Want More
TTITLE7=Thomas Rhett - Get Me Some Of That
TTITLE8=Brett Eldridge - Beat Of The Music
TTITLE9=Brad Paisley - River Song (vocals)
TTITLE10=Eric Paslay - Song About A Girl (vocals)
TTITLE11=Cole Swindell - Hope You Get Lonely Tonight (vocals)
TTITLE12=Dustin Lynch - Where It's At (vocals)
TTITLE13=Blake Shelton feat Gwen Sebatian - My Eyes (vocals)
TTITLE14=Sara Evans - Slow Me Down (vocals)
TTITLE15=Jamie Lynn Spears - How Could I Want More (vocals)
TTITLE16=Thomas Rhett - Get Me Some Of That (vocals)
TTITLE17=Brett Eldridge - Beat Of The Music (vocals)
EXTD=
EXTT0=
EXTT1=
EXTT2=
EXTT3=
EXTT4=
EXTT5=
EXTT6=
EXTT7=
EXTT8=
EXTT9=
EXTT10=
EXTT11=
EXTT12=
EXTT13=
EXTT14=
EXTT15=
EXTT16=
EXTT17=
PLAYORDER=
